# xmcd CD database file
#
# Track frame offsets:
#	150
#	13037
#	23017
#	33587
#	42620
#	54610
#	69975
#	80345
#	89730
#	101195
#	113670
#	123297
#	134205
#	144020
#	154807
#	168937
#	179135
#	192160
#	201387
#	216552
#
# Disc length: 3059 seconds
#
# Revision: 4
# Processed by: cddbd v1.5.1PL2 Copyright (c) Steve Scherf et al.
# Submitted via: CDex 1.51
#
DISCID=2c0bf114
DTITLE=Jim Reeves - The Essential Jim Reeves
DYEAR=1995
DGENRE=Country
TTITLE0=Four Walls
TTITLE1=Blue Boy
TTITLE2=He'll Have to Go
TTITLE3=Home
TTITLE4=Am I Losing You
TTITLE5=The Blizzard
TTITLE6=I'm Gettin' Better
TTITLE7=I Know One
TTITLE8=Adios Amigos
TTITLE9=I Love You Because
TTITLE10=I'm Gonna Change Everything
TTITLE11=Welcome to My World
TTITLE12=Is This Me
TTITLE13=I Guess I'm Crazy
TTITLE14=This Is It
TTITLE15=Is It Really Over
TTITLE16=Distant Drums
TTITLE17=I Won't Forget You
TTITLE18=Blue Side of Lonesome
TTITLE19=Suppertime
EXTD=Recorded 1957-02-07/1966-02-09.\nCD: RCA 07863 66589-2 (1995-08-01), UPC 078636658926.
EXTT0=
EXTT1=
EXTT2=
EXTT3=
EXTT4=
EXTT5=
EXTT6=
EXTT7=
EXTT8=
EXTT9=
EXTT10=
EXTT11=
EXTT12=
EXTT13=
EXTT14=
EXTT15=
EXTT16=
EXTT17=
EXTT18=
EXTT19=
PLAYORDER=
